<svg width="800" height="800" viewBox="0 0 800 800" fill="none" xmlns="http://www.w3.org/2000/svg">
<path d="M743.662 126.952C739.199 122.489 734.736 121.001 728.785 121.001C672.251 118.025 614.229 122.489 557.695 123.976H356.851C295.854 123.976 246.759 137.366 200.639 179.023C170.885 205.802 142.618 244.483 120.302 278.701C118.814 283.164 117.326 286.139 117.326 292.09C117.326 303.992 127.74 314.406 139.642 314.406C153.032 314.406 156.007 305.48 161.958 296.554C167.909 286.139 175.348 277.213 184.274 269.774C215.517 241.507 257.173 225.142 298.83 229.605C263.124 327.796 214.029 440.864 142.618 518.226C112.863 550.956 62.28 583.686 51.8658 628.318C39.964 674.438 87.5715 686.34 121.789 672.95C166.421 655.097 194.688 608.978 217.004 568.809C245.271 519.714 270.563 467.643 291.391 415.572C313.707 363.502 334.535 312.919 356.851 260.848C370.241 229.605 373.216 229.605 405.946 229.605H493.723C460.993 301.017 429.75 373.916 401.483 446.815C379.167 501.861 338.998 583.686 367.265 643.196C395.532 702.705 474.382 680.389 517.527 650.634C560.671 619.392 590.425 570.297 614.229 522.689C618.692 513.763 623.156 504.836 620.18 494.422C617.205 485.496 608.278 481.033 599.352 481.033C578.524 481.033 575.548 504.836 568.109 519.714C556.208 545.005 529.428 567.321 501.161 562.858C435.701 553.932 493.723 434.913 505.625 403.67C517.527 370.94 530.916 338.21 545.793 306.968C553.232 289.115 560.671 269.774 571.085 251.921C582.987 229.605 582.987 229.605 609.766 228.118C632.082 226.63 697.542 238.532 716.883 226.63C733.248 216.216 742.174 177.535 749.613 149.268C751.101 140.341 748.125 132.903 743.662 126.952Z" fill="white"/>
</svg>
