<svg width="800" height="800" viewBox="0 0 800 800" fill="none" xmlns="http://www.w3.org/2000/svg">
<path d="M399.999 750C591.126 750 750 591.47 750 400C750 208.873 590.783 50 399.656 50C208.185 50 50 208.873 50 400C50 591.47 208.529 750 399.999 750ZM399.999 691.666C238.038 691.666 108.675 561.96 108.675 400C108.675 238.382 237.695 108.334 399.656 108.334C561.272 108.334 691.321 238.382 691.666 400C692.011 561.96 561.616 691.666 399.999 691.666ZM356.764 610.685L539.656 378.382C554.068 360.195 547.547 345.441 529.018 345.441H436.029L462.449 202.696C465.881 182.795 444.607 173.529 431.568 189.657L249.018 421.961C234.264 440.147 240.783 455.244 259.656 455.244H352.303L326.225 597.989C322.449 617.892 343.725 627.156 356.764 610.685Z" fill="#8A8D99"/>
</svg>
