<svg width="800" height="800" viewBox="0 0 800 800" fill="none" xmlns="http://www.w3.org/2000/svg">
<g clip-path="url(#clip0_797_630)">
<path d="M800 0H0V800H800V0Z" fill="white" fill-opacity="0.01"/>
<path d="M533.051 349.356H452.08L511.616 245.362C513.279 242.485 514.154 239.221 514.153 235.899C514.151 232.576 513.273 229.313 511.606 226.438C509.94 223.562 507.544 221.176 504.66 219.519C501.776 217.862 498.506 216.993 495.179 217H362.626C359.107 216.998 355.657 217.976 352.663 219.823C349.67 221.67 347.251 224.313 345.678 227.456L250.997 416.535C249.554 419.419 248.873 422.623 249.019 425.843C249.165 429.063 250.134 432.192 251.832 434.933C253.53 437.675 255.902 439.937 258.722 441.506C261.542 443.074 264.717 443.897 267.945 443.895H356.112L306.613 608.64C305.357 612.805 305.577 617.275 307.237 621.296C308.896 625.317 311.894 628.645 315.724 630.717C319.554 632.789 323.982 633.479 328.262 632.671C332.542 631.863 336.413 629.606 339.221 626.281L547.518 380.478C549.852 377.725 551.348 374.362 551.831 370.787C552.313 367.213 551.761 363.575 550.24 360.303C548.719 357.031 546.293 354.262 543.247 352.322C540.201 350.383 536.664 349.353 533.051 349.356ZM369.007 532.555L399.703 430.452C400.557 427.626 400.737 424.64 400.228 421.733C399.719 418.825 398.536 416.077 396.773 413.709C395.01 411.34 392.716 409.416 390.074 408.091C387.433 406.766 384.518 406.077 381.562 406.079H298.584L374.328 254.816H462.533L402.998 358.81C401.334 361.687 400.459 364.951 400.461 368.273C400.462 371.595 401.341 374.858 403.007 377.734C404.673 380.609 407.069 382.995 409.953 384.652C412.837 386.309 416.107 387.178 419.434 387.171H492.225L369.007 532.555Z" fill="#8A8D99"/>
<path d="M216.667 583.333H116.667V683.333" stroke="#8A8D99" stroke-width="32" stroke-linecap="round" stroke-linejoin="round"/>
<path d="M683.333 683.333H583.333V583.333" stroke="#8A8D99" stroke-width="32" stroke-linecap="round" stroke-linejoin="round"/>
<path d="M583.333 216.667H683.333V116.667" stroke="#8A8D99" stroke-width="32" stroke-linecap="round" stroke-linejoin="round"/>
<path d="M116.667 116.667H216.667V216.667" stroke="#8A8D99" stroke-width="32" stroke-linecap="round" stroke-linejoin="round"/>
<path d="M216.667 121.567C126.297 181.192 66.667 283.632 66.667 400C66.667 416.993 67.9387 433.69 70.392 450" stroke="#8A8D99" stroke-width="32" stroke-linecap="round" stroke-linejoin="round"/>
<path d="M449.998 729.608C433.688 732.061 416.991 733.333 399.998 733.333C283.63 733.333 181.19 673.703 121.565 583.333" stroke="#8A8D99" stroke-width="32" stroke-linecap="round" stroke-linejoin="round"/>
<path d="M729.608 350C732.061 366.31 733.333 383.007 733.333 400C733.333 516.368 673.703 618.808 583.333 678.433" stroke="#8A8D99" stroke-width="32" stroke-linecap="round" stroke-linejoin="round"/>
<path d="M350 70.3915C366.31 67.9382 383.007 66.6665 400 66.6665C516.368 66.6665 618.808 126.296 678.433 216.666" stroke="#8A8D99" stroke-width="32" stroke-linecap="round" stroke-linejoin="round"/>
</g>
<defs>
<clipPath id="clip0_797_630">
<rect width="800" height="800" fill="white"/>
</clipPath>
</defs>
</svg>
