<svg width="800" height="800" viewBox="0 0 800 800" fill="none" xmlns="http://www.w3.org/2000/svg">
<g clip-path="url(#clip0_523_670)">
<path fill-rule="evenodd" clip-rule="evenodd" d="M346.667 53.3335C331.939 53.3335 320 65.2727 320 80.0002C320 94.7276 331.939 106.667 346.667 106.667C380.091 106.667 397.716 117.348 408.3 132.167C420.165 148.777 426.667 175.38 426.667 213.333V586.667C426.667 624.619 420.165 651.221 408.3 667.835C397.716 682.651 380.091 693.333 346.667 693.333C331.939 693.333 320 705.275 320 720C320 734.725 331.939 746.667 346.667 746.667C393.242 746.667 428.95 730.683 451.7 698.832C452.254 698.059 452.798 697.275 453.333 696.485C453.868 697.275 454.413 698.059 454.967 698.832C477.716 730.683 513.425 746.667 560 746.667C574.725 746.667 586.667 734.725 586.667 720C586.667 705.275 574.725 693.333 560 693.333C526.575 693.333 508.95 682.651 498.366 667.835C486.501 651.221 480 624.619 480 586.667V213.333C480 175.38 486.501 148.777 498.366 132.167C508.95 117.348 526.575 106.667 560 106.667C574.725 106.667 586.667 94.7276 586.667 80.0002C586.667 65.2727 574.725 53.3335 560 53.3335C513.425 53.3335 477.716 69.3186 454.967 101.167C454.413 101.943 453.868 102.726 453.333 103.515C452.798 102.726 452.254 101.943 451.7 101.167C428.95 69.3186 393.242 53.3335 346.667 53.3335ZM746.667 266.667H586.667V213.333H746.667C776.123 213.333 800 237.212 800 266.667V533.333C800 562.789 776.123 586.667 746.667 586.667H586.667V533.333H746.667V266.667ZM320 213.333V266.667H53.3333V533.333H320V586.667H53.3333C23.8781 586.667 0 562.789 0 533.333V266.667C0 237.212 23.8781 213.333 53.3333 213.333H320Z" fill="#8A8D99"/>
</g>
<defs>
<clipPath id="clip0_523_670">
<rect width="800" height="800" fill="white"/>
</clipPath>
</defs>
</svg>
