<svg width="800" height="800" viewBox="0 0 800 800" fill="none" xmlns="http://www.w3.org/2000/svg">
<path fill-rule="evenodd" clip-rule="evenodd" d="M283.724 660.318L207.682 584.341H155.339C137.044 584.341 122.07 569.367 122.07 551.073V494.432H90.3646V560.708C90.3646 574.836 78.776 586.424 64.6484 586.424H25.7161C11.5885 586.424 0 574.836 0 560.708V336.099C0 321.971 11.5885 310.383 25.7161 310.383H64.6484C78.776 310.383 90.3646 321.971 90.3646 336.099V402.375H122.07V341.437C122.07 323.143 137.044 308.169 155.339 308.169H210.938L289.518 224.64C298.633 216.698 310.742 213.898 324.87 214.484H648.633C659.831 215.721 668.359 220.018 673.568 228.091C678.776 236.034 677.93 240.526 677.93 249.445V402.375H709.635V336.099C709.635 321.971 721.224 310.383 735.352 310.383H774.284C788.411 310.383 800 321.971 800 336.099V560.708C800 574.836 788.411 586.424 774.284 586.424H735.352C721.224 586.424 709.635 574.836 709.635 560.708V494.432H677.93V500.422C677.93 518.195 678.451 528.937 667.122 543.651C664.974 546.45 662.565 549.12 659.896 551.594L543.815 665.265C538.021 671.711 529.232 675.226 517.643 675.877H319.727C304.948 675.226 292.904 670.148 283.724 660.318ZM414.779 462.271L332.487 454.523L400.716 305.044H494.01L441.081 390.786L536.263 401.333L361.523 611.099L414.779 462.271ZM338.411 60.0571H563.021C577.148 60.0571 588.737 71.6457 588.737 85.7733V124.706C588.737 138.833 577.148 150.422 563.021 150.422H496.745V183.169H404.687V150.422H338.411C324.284 150.422 312.695 138.833 312.695 124.706V85.7733C312.695 71.6457 324.284 60.0571 338.411 60.0571Z" fill="#8A8D99"/>
</svg>
