<svg width="800" height="800" viewBox="0 0 800 800" fill="none" xmlns="http://www.w3.org/2000/svg">
<path d="M400 195C354.037 195 308.525 204.053 266.061 221.642C223.597 239.231 185.013 265.012 152.513 297.513C120.012 330.013 94.2313 368.597 76.6422 411.061C59.053 453.525 50 499.037 50 545C50.1455 584.404 56.9441 623.501 70.109 660.641C64.5222 637.294 61.6359 613.383 61.5072 589.377C61.5106 506.251 94.5335 426.532 153.312 367.754C212.09 308.975 291.81 275.952 374.935 275.949C437.092 276.01 497.828 294.55 549.422 329.212L611.857 266.777C550.991 220.322 476.569 195.108 400 195ZM666.829 300.103C659.487 300.226 652.032 303.086 645.866 308.306L377.726 535.259C365.395 545.699 336.421 576.441 377.668 617.689C418.923 658.944 449.654 629.904 460.098 617.575L687.108 349.549C697.551 337.219 698.534 319.731 687.108 308.306C681.395 302.593 674.172 299.979 666.829 300.103ZM720.776 405.319L661.816 464.279C678.766 502.874 687.756 544.492 688.249 586.642H747.038C748.853 572.833 749.842 558.927 750 545C749.955 496.927 740.007 449.378 720.776 405.319Z" fill="#8A8D99"/>
</svg>
