<svg width="800" height="800" viewBox="0 0 800 800" fill="none" xmlns="http://www.w3.org/2000/svg">
<path d="M79.166 677.168L102.192 611.543H50L79.166 531.328H130.338L150.804 473.002L101.041 473L122.916 407.375H173.83L196.856 341.75H159.375L188.541 290.709H214.765L232.674 239.668H195.834L225 203.209H245.466L273.609 123H341.666L320.559 203.209H479.441L458.334 123H526.391L554.534 203.209H575L604.166 239.668H567.326L585.235 290.709H611.459L640.625 341.75H603.146L626.17 407.375H669.791L691.666 473.007H649.198L669.662 531.328H720.832L750 611.543H697.808L720.834 677.168H604.166L586.896 611.543H213.104L195.834 677.168H79.166ZM297.533 290.709H502.467L489.035 239.668H310.964L297.533 290.709ZM266.831 407.375H533.168L515.898 341.752H284.1L266.831 407.375ZM234.212 531.328H565.788L550.439 473.006L249.561 473.002L234.212 531.328Z" fill="white"/>
</svg>
