<svg width="800" height="800" viewBox="0 0 800 800" fill="none" xmlns="http://www.w3.org/2000/svg">
<path d="M648.494 530.743V172.866C648.494 105.006 593.5 50 525.628 50H274.866C207.02 50 152 105.006 152 172.866V530.743C152 582.187 189.438 625.051 238.501 633.584L161.446 750H229.956L261.581 702.202H538.939L570.563 750H639.061L562.02 633.584C611.069 625.04 648.494 582.187 648.494 530.743ZM293.855 105.163H506.639V140.628H293.855V105.163ZM229.834 219.786C229.834 204.358 242.326 191.843 257.753 191.843H542.752C558.168 191.843 570.682 204.358 570.682 219.786V337.645C570.682 353.073 558.167 365.576 542.752 365.576H257.755C242.327 365.576 229.835 353.073 229.835 337.645V219.786H229.834ZM256.43 561.334C238.44 561.334 223.855 546.748 223.855 528.77C223.855 510.768 238.44 496.182 256.43 496.182C274.421 496.182 289.006 510.767 289.006 528.77C289.006 546.748 274.421 561.334 256.43 561.334ZM282.147 671.13L305.949 635.148H494.557L518.36 671.13H282.147ZM544.077 561.334C526.087 561.334 511.502 546.748 511.502 528.77C511.502 510.768 526.087 496.182 544.077 496.182C562.067 496.182 576.653 510.767 576.653 528.77C576.653 546.748 562.067 561.334 544.077 561.334Z" fill="white"/>
</svg>
